# xmcd CD database file
#
# Track frame offsets:
#	150
#	24924
#	44020
#	60841
#	83203
#
# Disc length: 1370 seconds
#
# Revision: 0
# Processed by: cddbd v1.5.2PL0 Copyright (c) Steve Scherf et al.
# Submitted via: CDex 1.50beta10
#
DISCID=32055805
DTITLE=Helm and The All Star Band - Live At Troubador EP
DYEAR=2009
DGENRE=Jazz
TTITLE0=My Own Way
TTITLE1=Sun Girl
TTITLE2=Sometimes
TTITLE3=Superheroes
TTITLE4=The Simple Things
EXTD=YEAR: 2009
EXTT0=
EXTT1=
EXTT2=
EXTT3=
EXTT4=
PLAYORDER=
